M48
; DRILL file {KiCad (5.1.5)-3} date 01/26/21 15:14:48
; FORMAT={-:-/ absolute / metric / decimal}
; #@! TF.CreationDate,2021-01-26T15:14:48+01:00
; #@! TF.GenerationSoftware,Kicad,Pcbnew,(5.1.5)-3
; #@! TF.FileFunction,Plated,1,2,PTH
FMAT,2
METRIC
T1C0.762
T2C0.800
T3C0.890
T4C1.000
T5C1.100
T6C2.010
T7C3.000
%
G90
G05
T1
X73.2Y57.2
X75.2Y57.1
T2
X55.38Y28.58
X55.38Y31.12
X55.38Y33.66
X55.38Y36.2
X55.38Y38.74
X55.38Y41.28
X55.38Y43.82
X55.38Y46.36
X55.38Y48.9
X63.0Y28.58
X63.0Y31.12
X63.0Y33.66
X63.0Y36.2
X63.0Y38.74
X63.0Y41.28
X63.0Y43.82
X63.0Y46.36
X63.0Y48.9
X67.3Y33.6
X67.3Y36.14
X67.3Y38.68
X67.3Y41.22
X67.3Y43.76
X67.3Y46.3
X67.3Y48.84
X67.3Y51.38
X74.92Y33.6
X74.92Y36.14
X74.92Y38.68
X74.92Y41.22
X74.92Y43.76
X74.92Y46.3
X74.92Y48.84
X74.92Y51.38
X75.2Y55.1
T3
X60.693Y15.544
X63.69Y15.594
X66.84Y15.594
X55.2Y18.1
X57.74Y18.1
X53.7Y53.76
X53.7Y56.3
X67.4Y25.56
X67.4Y28.1
X71.11Y19.88
X71.11Y22.42
X71.11Y24.96
X73.2Y55.1
X64.77Y21.59
X67.31Y21.59
T4
X30.4Y35.9
T5
X54.61Y22.86
X57.15Y22.86
X59.69Y22.86
X57.7Y53.0
X57.7Y55.54
X57.7Y58.08
T6
X76.2Y27.5
X76.3Y17.34
T7
X15.4Y20.9
X45.4Y20.9
X45.4Y50.9
X15.4Y50.9
T0
M30
