G04 #@! TF.GenerationSoftware,KiCad,Pcbnew,(5.1.5)-3*
G04 #@! TF.CreationDate,2021-01-26T15:52:54+01:00*
G04 #@! TF.ProjectId,LED_multiplexer,4c45445f-6d75-46c7-9469-706c65786572,v01*
G04 #@! TF.SameCoordinates,Original*
G04 #@! TF.FileFunction,Copper,L2,Bot*
G04 #@! TF.FilePolarity,Positive*
%FSLAX46Y46*%
G04 Gerber Fmt 4.6, Leading zero omitted, Abs format (unit mm)*
G04 Created by KiCad (PCBNEW (5.1.5)-3) date 2021-01-26 15:52:54*
%MOMM*%
%LPD*%
G04 APERTURE LIST*
%ADD10C,0.100000*%
%ADD11C,0.200000*%
%ADD12R,2.200000X5.000000*%
%ADD13R,5.000000X2.200000*%
%ADD14R,2.400000X7.000000*%
%ADD15C,1.700000*%
%ADD16C,2.000000*%
%ADD17R,1.600000X1.600000*%
%ADD18C,6.000000*%
%ADD19C,5.000000*%
%ADD20C,4.500000*%
%ADD21O,2.400000X1.600000*%
%ADD22R,2.400000X1.600000*%
%ADD23O,2.000000X1.905000*%
%ADD24R,2.000000X1.905000*%
%ADD25O,1.905000X2.000000*%
%ADD26R,1.905000X2.000000*%
%ADD27C,0.800000*%
%ADD28C,0.700000*%
%ADD29C,0.900000*%
G04 APERTURE END LIST*
D10*
G36*
X32400000Y-28100000D02*
G01*
X32200000Y-31500000D01*
X28200000Y-31500000D01*
X28200000Y-26500000D01*
X34000000Y-26500000D01*
X32400000Y-28100000D01*
G37*
X32400000Y-28100000D02*
X32200000Y-31500000D01*
X28200000Y-31500000D01*
X28200000Y-26500000D01*
X34000000Y-26500000D01*
X32400000Y-28100000D01*
G36*
X40600000Y-31300000D02*
G01*
X39800000Y-32100000D01*
X36000000Y-33700000D01*
X34200000Y-31900000D01*
X34400000Y-29100000D01*
X36800000Y-27300000D01*
X40600000Y-31300000D01*
G37*
X40600000Y-31300000D02*
X39800000Y-32100000D01*
X36000000Y-33700000D01*
X34200000Y-31900000D01*
X34400000Y-29100000D01*
X36800000Y-27300000D01*
X40600000Y-31300000D01*
G36*
X40800000Y-37500000D02*
G01*
X36600000Y-37500000D01*
X36600000Y-34500000D01*
X40800000Y-32900000D01*
X40800000Y-37500000D01*
G37*
X40800000Y-37500000D02*
X36600000Y-37500000D01*
X36600000Y-34500000D01*
X40800000Y-32900000D01*
X40800000Y-37500000D01*
G36*
X40400000Y-40700000D02*
G01*
X36400000Y-44500000D01*
X33600000Y-41700000D01*
X35600000Y-39900000D01*
X39800000Y-39900000D01*
X40400000Y-40700000D01*
G37*
X40400000Y-40700000D02*
X36400000Y-44500000D01*
X33600000Y-41700000D01*
X35600000Y-39900000D01*
X39800000Y-39900000D01*
X40400000Y-40700000D01*
G36*
X34400000Y-45500000D02*
G01*
X34400000Y-46300000D01*
X28400000Y-46300000D01*
X28400000Y-41700000D01*
X30600000Y-41700000D01*
X34400000Y-45500000D01*
G37*
X34400000Y-45500000D02*
X34400000Y-46300000D01*
X28400000Y-46300000D01*
X28400000Y-41700000D01*
X30600000Y-41700000D01*
X34400000Y-45500000D01*
G36*
X26200000Y-40300000D02*
G01*
X26200000Y-45300000D01*
X25600000Y-45900000D01*
X21800000Y-42100000D01*
X24600000Y-39300000D01*
X26200000Y-40300000D01*
G37*
X26200000Y-40300000D02*
X26200000Y-45300000D01*
X25600000Y-45900000D01*
X21800000Y-42100000D01*
X24600000Y-39300000D01*
X26200000Y-40300000D01*
G36*
X23600000Y-37300000D02*
G01*
X20800000Y-40100000D01*
X20000000Y-40100000D01*
X20000000Y-34100000D01*
X23600000Y-34100000D01*
X23600000Y-37300000D01*
G37*
X23600000Y-37300000D02*
X20800000Y-40100000D01*
X20000000Y-40100000D01*
X20000000Y-34100000D01*
X23600000Y-34100000D01*
X23600000Y-37300000D01*
G36*
X26000000Y-30500000D02*
G01*
X24000000Y-30500000D01*
X21800000Y-29500000D01*
X23800000Y-27300000D01*
X26000000Y-27300000D01*
X26000000Y-30500000D01*
G37*
X26000000Y-30500000D02*
X24000000Y-30500000D01*
X21800000Y-29500000D01*
X23800000Y-27300000D01*
X26000000Y-27300000D01*
X26000000Y-30500000D01*
D11*
X54875714Y-26658571D02*
X54875714Y-25158571D01*
X54875714Y-25872857D02*
X54018571Y-25872857D01*
X54018571Y-26658571D02*
X54018571Y-25158571D01*
X53304285Y-26658571D02*
X53304285Y-25158571D01*
X52804285Y-26230000D01*
X52304285Y-25158571D01*
X52304285Y-26658571D01*
X66923809Y-54845714D02*
X66519047Y-55979047D01*
X66114285Y-54845714D01*
X64576190Y-55979047D02*
X65547619Y-55979047D01*
X65061904Y-55979047D02*
X65061904Y-54279047D01*
X65223809Y-54521904D01*
X65385714Y-54683809D01*
X65547619Y-54764761D01*
X63038095Y-54279047D02*
X63847619Y-54279047D01*
X63928571Y-55088571D01*
X63847619Y-55007619D01*
X63685714Y-54926666D01*
X63280952Y-54926666D01*
X63119047Y-55007619D01*
X63038095Y-55088571D01*
X62957142Y-55250476D01*
X62957142Y-55655238D01*
X63038095Y-55817142D01*
X63119047Y-55898095D01*
X63280952Y-55979047D01*
X63685714Y-55979047D01*
X63847619Y-55898095D01*
X63928571Y-55817142D01*
D10*
G36*
X76480000Y-58180000D02*
G01*
X71330000Y-58180000D01*
X71980000Y-57360000D01*
X74315000Y-56545000D01*
X74430000Y-55910000D01*
X75750000Y-55740000D01*
X75830000Y-54320000D01*
X76700000Y-54320000D01*
X76480000Y-58180000D01*
G37*
X76480000Y-58180000D02*
X71330000Y-58180000D01*
X71980000Y-57360000D01*
X74315000Y-56545000D01*
X74430000Y-55910000D01*
X75750000Y-55740000D01*
X75830000Y-54320000D01*
X76700000Y-54320000D01*
X76480000Y-58180000D01*
G36*
X29140480Y-52179040D02*
G01*
X31604280Y-52179040D01*
X31604280Y-46098280D01*
X29140480Y-46098280D01*
X29140480Y-52179040D01*
G37*
X29140480Y-52179040D02*
X31604280Y-52179040D01*
X31604280Y-46098280D01*
X29140480Y-46098280D01*
X29140480Y-52179040D01*
G36*
X28800120Y-52057120D02*
G01*
X28871240Y-52057120D01*
X28871240Y-47109200D01*
X28800120Y-47109200D01*
X28800120Y-52057120D01*
G37*
X28800120Y-52057120D02*
X28871240Y-52057120D01*
X28871240Y-47109200D01*
X28800120Y-47109200D01*
X28800120Y-52057120D01*
G36*
X31868440Y-52163800D02*
G01*
X31939560Y-52163800D01*
X31939560Y-47215880D01*
X31868440Y-47215880D01*
X31868440Y-52163800D01*
G37*
X31868440Y-52163800D02*
X31939560Y-52163800D01*
X31939560Y-47215880D01*
X31868440Y-47215880D01*
X31868440Y-52163800D01*
G36*
X46679040Y-37129520D02*
G01*
X46679040Y-34665720D01*
X40598280Y-34665720D01*
X40598280Y-37129520D01*
X46679040Y-37129520D01*
G37*
X46679040Y-37129520D02*
X46679040Y-34665720D01*
X40598280Y-34665720D01*
X40598280Y-37129520D01*
X46679040Y-37129520D01*
G36*
X46557120Y-37469880D02*
G01*
X46557120Y-37398760D01*
X41609200Y-37398760D01*
X41609200Y-37469880D01*
X46557120Y-37469880D01*
G37*
X46557120Y-37469880D02*
X46557120Y-37398760D01*
X41609200Y-37398760D01*
X41609200Y-37469880D01*
X46557120Y-37469880D01*
G36*
X46663800Y-34401560D02*
G01*
X46663800Y-34330440D01*
X41715880Y-34330440D01*
X41715880Y-34401560D01*
X46663800Y-34401560D01*
G37*
X46663800Y-34401560D02*
X46663800Y-34330440D01*
X41715880Y-34330440D01*
X41715880Y-34401560D01*
X46663800Y-34401560D01*
G36*
X14120960Y-34650480D02*
G01*
X14120960Y-37114280D01*
X20201720Y-37114280D01*
X20201720Y-34650480D01*
X14120960Y-34650480D01*
G37*
X14120960Y-34650480D02*
X14120960Y-37114280D01*
X20201720Y-37114280D01*
X20201720Y-34650480D01*
X14120960Y-34650480D01*
G36*
X14242880Y-34310120D02*
G01*
X14242880Y-34381240D01*
X19190800Y-34381240D01*
X19190800Y-34310120D01*
X14242880Y-34310120D01*
G37*
X14242880Y-34310120D02*
X14242880Y-34381240D01*
X19190800Y-34381240D01*
X19190800Y-34310120D01*
X14242880Y-34310120D01*
G36*
X14136200Y-37378440D02*
G01*
X14136200Y-37449560D01*
X19084120Y-37449560D01*
X19084120Y-37378440D01*
X14136200Y-37378440D01*
G37*
X14136200Y-37378440D02*
X14136200Y-37449560D01*
X19084120Y-37449560D01*
X19084120Y-37378440D01*
X14136200Y-37378440D01*
G36*
X17970581Y-46576473D02*
G01*
X19712751Y-48318643D01*
X24012497Y-44018896D01*
X22270328Y-42276726D01*
X17970581Y-46576473D01*
G37*
X17970581Y-46576473D02*
X19712751Y-48318643D01*
X24012497Y-44018896D01*
X22270328Y-42276726D01*
X17970581Y-46576473D01*
G36*
X17816121Y-46249592D02*
G01*
X17866410Y-46299881D01*
X21365118Y-42801173D01*
X21314828Y-42750884D01*
X17816121Y-46249592D01*
G37*
X17816121Y-46249592D02*
X17866410Y-46299881D01*
X21365118Y-42801173D01*
X21314828Y-42750884D01*
X17816121Y-46249592D01*
G36*
X19910316Y-48494656D02*
G01*
X19960606Y-48544945D01*
X23459314Y-45046237D01*
X23409024Y-44995948D01*
X19910316Y-48494656D01*
G37*
X19910316Y-48494656D02*
X19960606Y-48544945D01*
X23459314Y-45046237D01*
X23409024Y-44995948D01*
X19910316Y-48494656D01*
G36*
X41076473Y-48329419D02*
G01*
X42818643Y-46587249D01*
X38518896Y-42287503D01*
X36776726Y-44029672D01*
X41076473Y-48329419D01*
G37*
X41076473Y-48329419D02*
X42818643Y-46587249D01*
X38518896Y-42287503D01*
X36776726Y-44029672D01*
X41076473Y-48329419D01*
G36*
X40749592Y-48483879D02*
G01*
X40799881Y-48433590D01*
X37301173Y-44934882D01*
X37250884Y-44985172D01*
X40749592Y-48483879D01*
G37*
X40749592Y-48483879D02*
X40799881Y-48433590D01*
X37301173Y-44934882D01*
X37250884Y-44985172D01*
X40749592Y-48483879D01*
G36*
X42994656Y-46389684D02*
G01*
X43044945Y-46339394D01*
X39546237Y-42840686D01*
X39495948Y-42890976D01*
X42994656Y-46389684D01*
G37*
X42994656Y-46389684D02*
X43044945Y-46339394D01*
X39546237Y-42840686D01*
X39495948Y-42890976D01*
X42994656Y-46389684D01*
G36*
X37279621Y-26843565D02*
G01*
X37315542Y-26879486D01*
X40871723Y-23251463D01*
X37279621Y-26843565D01*
G37*
X37279621Y-26843565D02*
X37315542Y-26879486D01*
X40871723Y-23251463D01*
X37279621Y-26843565D01*
G36*
X36778522Y-27782900D02*
G01*
X38486567Y-29501721D01*
X42771945Y-25216343D01*
X41063901Y-23497522D01*
X36778522Y-27782900D01*
G37*
X36778522Y-27782900D02*
X38486567Y-29501721D01*
X42771945Y-25216343D01*
X41063901Y-23497522D01*
X36778522Y-27782900D01*
G36*
X39477987Y-28955721D02*
G01*
X39513908Y-28991642D01*
X43070090Y-25363619D01*
X39477987Y-28955721D01*
G37*
X39477987Y-28955721D02*
X39513908Y-28991642D01*
X43070090Y-25363619D01*
X39477987Y-28955721D01*
G36*
X21343565Y-29020379D02*
G01*
X21379486Y-28984458D01*
X17751463Y-25428277D01*
X21343565Y-29020379D01*
G37*
X21343565Y-29020379D02*
X21379486Y-28984458D01*
X17751463Y-25428277D01*
X21343565Y-29020379D01*
G36*
X22282900Y-29521478D02*
G01*
X24001721Y-27813433D01*
X19716343Y-23528055D01*
X17997522Y-25236099D01*
X22282900Y-29521478D01*
G37*
X22282900Y-29521478D02*
X24001721Y-27813433D01*
X19716343Y-23528055D01*
X17997522Y-25236099D01*
X22282900Y-29521478D01*
G36*
X23455721Y-26822013D02*
G01*
X23491642Y-26786092D01*
X19863619Y-23229910D01*
X23455721Y-26822013D01*
G37*
X23455721Y-26822013D02*
X23491642Y-26786092D01*
X19863619Y-23229910D01*
X23455721Y-26822013D01*
G36*
X28581360Y-25498520D02*
G01*
X28591520Y-24604440D01*
X28566120Y-18701480D01*
X28581360Y-25498520D01*
G37*
X28581360Y-25498520D02*
X28591520Y-24604440D01*
X28566120Y-18701480D01*
X28581360Y-25498520D01*
G36*
X28992840Y-27078400D02*
G01*
X31817320Y-27083480D01*
X31817320Y-18193480D01*
X28992840Y-18188400D01*
X28992840Y-27078400D01*
G37*
X28992840Y-27078400D02*
X31817320Y-27083480D01*
X31817320Y-18193480D01*
X28992840Y-18188400D01*
X28992840Y-27078400D01*
G36*
X32167840Y-25569640D02*
G01*
X32178000Y-24675560D01*
X32152600Y-18772600D01*
X32167840Y-25569640D01*
G37*
X32167840Y-25569640D02*
X32178000Y-24675560D01*
X32152600Y-18772600D01*
X32167840Y-25569640D01*
D12*
X33280000Y-49700000D03*
X27480000Y-49700000D03*
D13*
X44200000Y-32990000D03*
X44200000Y-38790000D03*
X16600000Y-38790000D03*
X16600000Y-32990000D03*
G04 #@! TA.AperFunction,SMDPad,CuDef*
D11*
G36*
X25196194Y-46760661D02*
G01*
X21660661Y-50296194D01*
X20105026Y-48740559D01*
X23640559Y-45205026D01*
X25196194Y-46760661D01*
G37*
G04 #@! TD.AperFunction*
G04 #@! TA.AperFunction,SMDPad,CuDef*
G36*
X21094974Y-42659441D02*
G01*
X17559441Y-46194974D01*
X16003806Y-44639339D01*
X19539339Y-41103806D01*
X21094974Y-42659441D01*
G37*
G04 #@! TD.AperFunction*
G04 #@! TA.AperFunction,SMDPad,CuDef*
G36*
X41260661Y-41103806D02*
G01*
X44796194Y-44639339D01*
X43240559Y-46194974D01*
X39705026Y-42659441D01*
X41260661Y-41103806D01*
G37*
G04 #@! TD.AperFunction*
G04 #@! TA.AperFunction,SMDPad,CuDef*
G36*
X37159441Y-45205026D02*
G01*
X40694974Y-48740559D01*
X39139339Y-50296194D01*
X35603806Y-46760661D01*
X37159441Y-45205026D01*
G37*
G04 #@! TD.AperFunction*
G04 #@! TA.AperFunction,SMDPad,CuDef*
G36*
X44796194Y-27160661D02*
G01*
X41260661Y-30696194D01*
X39705026Y-29140559D01*
X43240559Y-25605026D01*
X44796194Y-27160661D01*
G37*
G04 #@! TD.AperFunction*
G04 #@! TA.AperFunction,SMDPad,CuDef*
G36*
X40694974Y-23059441D02*
G01*
X37159441Y-26594974D01*
X35603806Y-25039339D01*
X39139339Y-21503806D01*
X40694974Y-23059441D01*
G37*
G04 #@! TD.AperFunction*
G04 #@! TA.AperFunction,SMDPad,CuDef*
G36*
X21660661Y-21503806D02*
G01*
X25196194Y-25039339D01*
X23640559Y-26594974D01*
X20105026Y-23059441D01*
X21660661Y-21503806D01*
G37*
G04 #@! TD.AperFunction*
G04 #@! TA.AperFunction,SMDPad,CuDef*
G36*
X17559441Y-25605026D02*
G01*
X21094974Y-29140559D01*
X19539339Y-30696194D01*
X16003806Y-27160661D01*
X17559441Y-25605026D01*
G37*
G04 #@! TD.AperFunction*
D14*
X33700000Y-22100000D03*
X27100000Y-22100000D03*
D15*
X73200000Y-57200000D03*
X75200000Y-57100000D03*
D16*
X73200000Y-55100000D03*
D17*
X75200000Y-55100000D03*
D16*
X66839600Y-15594400D03*
X63690000Y-15594400D03*
X60692800Y-15543600D03*
D18*
X45400000Y-20900000D03*
X15400000Y-20900000D03*
X15400000Y-50900000D03*
X45400000Y-50900000D03*
D19*
X30400000Y-35900000D03*
D16*
X71110000Y-24960000D03*
X71110000Y-19880000D03*
G04 #@! TA.AperFunction,ComponentPad*
D11*
G36*
X71804108Y-21522167D02*
G01*
X71847791Y-21528647D01*
X71890628Y-21539377D01*
X71932208Y-21554254D01*
X71972129Y-21573135D01*
X72010007Y-21595839D01*
X72045477Y-21622145D01*
X72078198Y-21651802D01*
X72107855Y-21684523D01*
X72134161Y-21719993D01*
X72156865Y-21757871D01*
X72175746Y-21797792D01*
X72190623Y-21839372D01*
X72201353Y-21882209D01*
X72207833Y-21925892D01*
X72210000Y-21970000D01*
X72210000Y-22870000D01*
X72207833Y-22914108D01*
X72201353Y-22957791D01*
X72190623Y-23000628D01*
X72175746Y-23042208D01*
X72156865Y-23082129D01*
X72134161Y-23120007D01*
X72107855Y-23155477D01*
X72078198Y-23188198D01*
X72045477Y-23217855D01*
X72010007Y-23244161D01*
X71972129Y-23266865D01*
X71932208Y-23285746D01*
X71890628Y-23300623D01*
X71847791Y-23311353D01*
X71804108Y-23317833D01*
X71760000Y-23320000D01*
X70460000Y-23320000D01*
X70415892Y-23317833D01*
X70372209Y-23311353D01*
X70329372Y-23300623D01*
X70287792Y-23285746D01*
X70247871Y-23266865D01*
X70209993Y-23244161D01*
X70174523Y-23217855D01*
X70141802Y-23188198D01*
X70112145Y-23155477D01*
X70085839Y-23120007D01*
X70063135Y-23082129D01*
X70044254Y-23042208D01*
X70029377Y-23000628D01*
X70018647Y-22957791D01*
X70012167Y-22914108D01*
X70010000Y-22870000D01*
X70010000Y-21970000D01*
X70012167Y-21925892D01*
X70018647Y-21882209D01*
X70029377Y-21839372D01*
X70044254Y-21797792D01*
X70063135Y-21757871D01*
X70085839Y-21719993D01*
X70112145Y-21684523D01*
X70141802Y-21651802D01*
X70174523Y-21622145D01*
X70209993Y-21595839D01*
X70247871Y-21573135D01*
X70287792Y-21554254D01*
X70329372Y-21539377D01*
X70372209Y-21528647D01*
X70415892Y-21522167D01*
X70460000Y-21520000D01*
X71760000Y-21520000D01*
X71804108Y-21522167D01*
G37*
G04 #@! TD.AperFunction*
D20*
X76200000Y-27500000D03*
X76300000Y-17340000D03*
D16*
X67400000Y-25560000D03*
X67400000Y-28100000D03*
X53700000Y-53760000D03*
X53700000Y-56300000D03*
X55200000Y-18100000D03*
X57740000Y-18100000D03*
D21*
X74920000Y-33600000D03*
X67300000Y-51380000D03*
X74920000Y-36140000D03*
X67300000Y-48840000D03*
X74920000Y-38680000D03*
X67300000Y-46300000D03*
X74920000Y-41220000D03*
X67300000Y-43760000D03*
X74920000Y-43760000D03*
X67300000Y-41220000D03*
X74920000Y-46300000D03*
X67300000Y-38680000D03*
X74920000Y-48840000D03*
X67300000Y-36140000D03*
X74920000Y-51380000D03*
D22*
X67300000Y-33600000D03*
D21*
X55380000Y-48900000D03*
X63000000Y-28580000D03*
X55380000Y-46360000D03*
X63000000Y-31120000D03*
X55380000Y-43820000D03*
X63000000Y-33660000D03*
X55380000Y-41280000D03*
X63000000Y-36200000D03*
X55380000Y-38740000D03*
X63000000Y-38740000D03*
X55380000Y-36200000D03*
X63000000Y-41280000D03*
X55380000Y-33660000D03*
X63000000Y-43820000D03*
X55380000Y-31120000D03*
X63000000Y-46360000D03*
X55380000Y-28580000D03*
D22*
X63000000Y-48900000D03*
D16*
X67310000Y-21590000D03*
X64770000Y-21590000D03*
D23*
X57700000Y-58080000D03*
X57700000Y-55540000D03*
D24*
X57700000Y-53000000D03*
D25*
X59690000Y-22860000D03*
X57150000Y-22860000D03*
D26*
X54610000Y-22860000D03*
D27*
X19200000Y-22700000D02*
X17000000Y-24900000D01*
X16400000Y-25900000D02*
X16400000Y-25700000D01*
X16400000Y-25700000D02*
X17000000Y-25100000D01*
D28*
X17000000Y-47000000D02*
X17400000Y-47400000D01*
X18750000Y-48750000D02*
X19150000Y-49150000D01*
D27*
X17900000Y-39500000D02*
X17900000Y-38250000D01*
X17650000Y-47550000D02*
X18826477Y-48726477D01*
X53920000Y-49960000D02*
X54980000Y-48900000D01*
X52240000Y-51293915D02*
X52240000Y-49960000D01*
X47683904Y-55850011D02*
X52240000Y-51293915D01*
X25250011Y-55850011D02*
X47683904Y-55850011D01*
X52240000Y-49960000D02*
X53920000Y-49960000D01*
X54980000Y-48900000D02*
X55380000Y-48900000D01*
X16380000Y-38890000D02*
X16380000Y-41100000D01*
X16380000Y-41100000D02*
X14640000Y-42840000D01*
D28*
X25250011Y-55850011D02*
X25250011Y-55430011D01*
X25250011Y-55430011D02*
X21603691Y-51783691D01*
X14640000Y-44276074D02*
X14627730Y-44288344D01*
X14640000Y-42840000D02*
X14640000Y-44276074D01*
X14627730Y-45158204D02*
X15534763Y-46065237D01*
X14627730Y-44288344D02*
X14627730Y-45158204D01*
X21603691Y-51783691D02*
X21603691Y-51724165D01*
X21603691Y-51724165D02*
X21473217Y-51593691D01*
X21473217Y-51593691D02*
X19689763Y-49810237D01*
X19689763Y-49810237D02*
X19089763Y-49210237D01*
X15534763Y-46065237D02*
X15944763Y-46065237D01*
X15944763Y-46065237D02*
X16989763Y-47110237D01*
D27*
X54660000Y-52800000D02*
X53700000Y-53760000D01*
X57700000Y-52800000D02*
X54660000Y-52800000D01*
X53700000Y-53760000D02*
X52568630Y-53760000D01*
X14900000Y-33550000D02*
X17900000Y-33550000D01*
X21300000Y-44100000D02*
X21110101Y-43910101D01*
X29630000Y-49890000D02*
X29820000Y-49700000D01*
X24690000Y-32990000D02*
X16600000Y-32990000D01*
X25000000Y-33300000D02*
X24690000Y-32990000D01*
X18549390Y-43649390D02*
X18650610Y-43649390D01*
X25000000Y-37300000D02*
X25000000Y-33300000D01*
X18650610Y-43649390D02*
X25000000Y-37300000D01*
X25000000Y-37300000D02*
X27800000Y-40100000D01*
X27480000Y-40420000D02*
X27480000Y-49700000D01*
X27800000Y-40100000D02*
X27480000Y-40420000D01*
X30498780Y-40100000D02*
X38149390Y-47750610D01*
X27800000Y-40100000D02*
X30498780Y-40100000D01*
X30498780Y-40100000D02*
X34000000Y-40100000D01*
X35310000Y-38790000D02*
X44200000Y-38790000D01*
X34000000Y-40100000D02*
X35310000Y-38790000D01*
X32750000Y-48400000D02*
X34000000Y-48400000D01*
X55380000Y-43820000D02*
X53480000Y-43820000D01*
X46780000Y-43920000D02*
X38900000Y-51800000D01*
X35570000Y-49890000D02*
X33380000Y-49890000D01*
X37430000Y-51750000D02*
X35570000Y-49890000D01*
D28*
X53260000Y-43600000D02*
X53480000Y-43820000D01*
X37330000Y-51800000D02*
X38950000Y-51800000D01*
D27*
X46780000Y-43920000D02*
X50380000Y-43920000D01*
X50700000Y-43600000D02*
X53260000Y-43600000D01*
X50380000Y-43920000D02*
X50700000Y-43600000D01*
X46250000Y-33550000D02*
X42900000Y-33550000D01*
X47580000Y-32890000D02*
X47750000Y-33060000D01*
X44380000Y-32890000D02*
X47580000Y-32890000D01*
X47750000Y-33060000D02*
X47780000Y-33060000D01*
X47780000Y-33060000D02*
X48759980Y-34039980D01*
X48759980Y-34039980D02*
X48759980Y-35369980D01*
X52130000Y-38740000D02*
X55380000Y-38740000D01*
X48759980Y-35369980D02*
X52130000Y-38740000D01*
X55200000Y-21625001D02*
X55125001Y-21700000D01*
X55200000Y-18100000D02*
X55200000Y-21625001D01*
D29*
X54410000Y-22415001D02*
X55200000Y-21625001D01*
X54410000Y-22860000D02*
X54410000Y-22415001D01*
D27*
X37400522Y-25222522D02*
X37400522Y-25599478D01*
X55200000Y-18100000D02*
X53730000Y-18100000D01*
X53730000Y-18100000D02*
X50480000Y-14850000D01*
X50480000Y-14850000D02*
X24670000Y-14850000D01*
X19290000Y-20230000D02*
X19290000Y-21959526D01*
X24670000Y-14850000D02*
X19290000Y-20230000D01*
X21298780Y-30900000D02*
X18549390Y-28150610D01*
X21298780Y-30900000D02*
X22800000Y-30900000D01*
X23389990Y-31489990D02*
X26589990Y-31489990D01*
X22800000Y-30900000D02*
X23389990Y-31489990D01*
X26589990Y-31489990D02*
X27200000Y-30879980D01*
X27200000Y-30879980D02*
X27200000Y-25900000D01*
X27100000Y-22100000D02*
X27200000Y-25900000D01*
X34000000Y-23400000D02*
X32750000Y-23400000D01*
X39333305Y-20433305D02*
X39600000Y-20700000D01*
X38438718Y-20400000D02*
X39350000Y-20400000D01*
X33382000Y-21890000D02*
X36985364Y-21890000D01*
X51560000Y-32218666D02*
X51560000Y-33660000D01*
X47241334Y-27900000D02*
X51560000Y-32218666D01*
X51560000Y-33660000D02*
X55380000Y-33660000D01*
X46800000Y-27900000D02*
X47241334Y-27900000D01*
X39610018Y-20710018D02*
X46800000Y-27900000D01*
X36985364Y-21853354D02*
X38438718Y-20400000D01*
X36985364Y-21890000D02*
X36985364Y-21853354D01*
X23222701Y-47461361D02*
X23222701Y-46400701D01*
X23222701Y-48532703D02*
X23222701Y-47461361D01*
X55500000Y-46400000D02*
X53600000Y-46400000D01*
X41630000Y-54230000D02*
X41400000Y-54000000D01*
X25759998Y-53810000D02*
X24100000Y-52150002D01*
X41400000Y-53810000D02*
X25599998Y-53810000D01*
X24100000Y-52150002D02*
X24100000Y-49460000D01*
X23950000Y-49460000D02*
X22501320Y-48011320D01*
X24100000Y-49460000D02*
X23950000Y-49460000D01*
X47200000Y-54700000D02*
X49585999Y-52314001D01*
X41559999Y-54159999D02*
X42200000Y-54800000D01*
X42200000Y-54800000D02*
X47104000Y-54800000D01*
X49600000Y-52064002D02*
X49600000Y-47560000D01*
X50800000Y-46400000D02*
X53590000Y-46400000D01*
X49600000Y-47600000D02*
X50800000Y-46400000D01*
X44190000Y-42080000D02*
X42501320Y-43768680D01*
X53480000Y-41280000D02*
X53410000Y-41210000D01*
X55380000Y-41280000D02*
X53480000Y-41280000D01*
X53410000Y-41210000D02*
X47830000Y-41210000D01*
X47830000Y-41210000D02*
X46960000Y-42080000D01*
X46960000Y-42080000D02*
X44190000Y-42080000D01*
X55380000Y-36200000D02*
X51700000Y-36200000D01*
X50159990Y-34659990D02*
X50159990Y-32939990D01*
X51700000Y-36200000D02*
X50159990Y-34659990D01*
X50159990Y-32939990D02*
X47050000Y-29830000D01*
X44320000Y-29830000D02*
X42502735Y-28012735D01*
X47050000Y-29830000D02*
X44320000Y-29830000D01*
X23222701Y-24338639D02*
X23222701Y-25399299D01*
X23222701Y-23267297D02*
X23222701Y-24338639D01*
X22502735Y-20017265D02*
X22502735Y-23767265D01*
X53620000Y-31120000D02*
X49800000Y-27300000D01*
X55380000Y-31120000D02*
X53620000Y-31120000D01*
X25920000Y-16600000D02*
X22502735Y-20017265D01*
X49800000Y-27300000D02*
X49800000Y-17500000D01*
X49800000Y-17500000D02*
X48900000Y-16600000D01*
X48900000Y-16600000D02*
X25920000Y-16600000D01*
X68140000Y-22420000D02*
X67310000Y-21590000D01*
X71110000Y-22420000D02*
X68140000Y-22420000D01*
X63000000Y-27280000D02*
X63000000Y-28580000D01*
X68240001Y-23809999D02*
X66470001Y-23809999D01*
X69390002Y-24960000D02*
X68240001Y-23809999D01*
X71110000Y-24960000D02*
X69390002Y-24960000D01*
X69720000Y-55100000D02*
X67300000Y-52680000D01*
X67300000Y-52680000D02*
X67300000Y-51380000D01*
X73200000Y-55100000D02*
X69720000Y-55100000D01*
X72241370Y-19880000D02*
X71110000Y-19880000D01*
X72241370Y-24960000D02*
X73000000Y-24000000D01*
X71110000Y-24960000D02*
X72241370Y-24960000D01*
X73000000Y-24000000D02*
X73160010Y-23839990D01*
X73200000Y-23841350D02*
X73200000Y-20800000D01*
X73160010Y-20798640D02*
X72241370Y-19880000D01*
X60660018Y-28580000D02*
X63000000Y-28580000D01*
X60340000Y-28900018D02*
X60660018Y-28580000D01*
X60340000Y-45050000D02*
X60330000Y-45060000D01*
X60340000Y-28900018D02*
X60340000Y-45050000D01*
X60330000Y-50120002D02*
X60959999Y-50750001D01*
X60330000Y-45060000D02*
X60330000Y-50120002D01*
X60959999Y-50750001D02*
X61020001Y-50750001D01*
X61650000Y-51380000D02*
X67300000Y-51380000D01*
X61020001Y-50750001D02*
X61650000Y-51380000D01*
D29*
X60692800Y-16621230D02*
X61790000Y-17718430D01*
X60692800Y-15543600D02*
X60692800Y-16621230D01*
X61790000Y-17718430D02*
X61790000Y-22160000D01*
D27*
X64890000Y-25260000D02*
X65060000Y-25260000D01*
X61790000Y-22160000D02*
X64890000Y-25260000D01*
X66470001Y-23809999D02*
X65060000Y-25260000D01*
X65060000Y-25260000D02*
X63000000Y-27280000D01*
D29*
X63540000Y-18160660D02*
X64770000Y-19390660D01*
X63540000Y-17100000D02*
X63540000Y-18160660D01*
D27*
X64770000Y-19390660D02*
X64770000Y-21590000D01*
D29*
X63540000Y-17100000D02*
X63480000Y-17100000D01*
X63540000Y-16822030D02*
X63540000Y-17100000D01*
X63690000Y-16672030D02*
X63540000Y-16822030D01*
X63690000Y-15594400D02*
X63690000Y-16672030D01*
D27*
X74920000Y-32300000D02*
X74920000Y-33600000D01*
X57200000Y-28500000D02*
X57080000Y-28580000D01*
X78270020Y-53204980D02*
X76375000Y-55100000D01*
X78270020Y-35250020D02*
X78270020Y-53204980D01*
X76620000Y-33600000D02*
X78270020Y-35250020D01*
X74920000Y-33600000D02*
X76620000Y-33600000D01*
X72769990Y-36864877D02*
X73795123Y-37890010D01*
X72769990Y-35415123D02*
X72769990Y-36864877D01*
X74920000Y-33600000D02*
X74585113Y-33600000D01*
X74585113Y-33600000D02*
X72769990Y-35415123D01*
X74130010Y-37890010D02*
X74920000Y-38680000D01*
X73795123Y-37890010D02*
X74130010Y-37890010D01*
X55380000Y-28580000D02*
X57080000Y-28580000D01*
X59410000Y-22860000D02*
X59410000Y-26290000D01*
X57700000Y-57800000D02*
X59500000Y-57800000D01*
X68344500Y-28200010D02*
X70720000Y-28200010D01*
X67400000Y-28100000D02*
X68244490Y-28100000D01*
X70700010Y-28200010D02*
X70900000Y-28400000D01*
X68344500Y-28200010D02*
X70700010Y-28200010D01*
X68244490Y-28100000D02*
X68344500Y-28200010D01*
X70900000Y-28400000D02*
X74920000Y-32300000D01*
X75200000Y-55100000D02*
X75200000Y-55200000D01*
X75200000Y-55100000D02*
X75200000Y-56000000D01*
X75200000Y-56000000D02*
X75400000Y-56200000D01*
X75800000Y-56200000D02*
X75800000Y-56000000D01*
X75200000Y-55200000D02*
X75800000Y-56000000D01*
X75800000Y-56000000D02*
X76000000Y-56000000D01*
X75200000Y-55897919D02*
X75497919Y-55600000D01*
X76000000Y-55600000D02*
X76200000Y-55400000D01*
X75497919Y-55600000D02*
X76000000Y-55600000D01*
X76375000Y-55100000D02*
X76200000Y-55400000D01*
X76200000Y-55400000D02*
X75200000Y-55100000D01*
X75000001Y-55299999D02*
X75200000Y-55100000D01*
X75000001Y-55964001D02*
X75000001Y-55299999D01*
X75200000Y-56475000D02*
X75260000Y-56535000D01*
X75200000Y-55100000D02*
X75200000Y-56475000D01*
X73995000Y-57800000D02*
X59500000Y-57800000D01*
X75260000Y-56535000D02*
X73995000Y-57800000D01*
X59410000Y-26290000D02*
X57310000Y-28500000D01*
X57310000Y-28500000D02*
X57200000Y-28500000D01*
X60000000Y-57300000D02*
X59500000Y-57800000D01*
X58690000Y-29880000D02*
X58560000Y-30010000D01*
X58560000Y-50329915D02*
X60000000Y-51769915D01*
X57310000Y-28500000D02*
X58690000Y-29880000D01*
X58560000Y-30010000D02*
X58560000Y-50329915D01*
X60000000Y-51769915D02*
X60000000Y-57300000D01*
X54500000Y-55500000D02*
X57700000Y-55500000D01*
X53700000Y-56300000D02*
X54500000Y-55500000D01*
D29*
X57110000Y-18730000D02*
X57740000Y-18100000D01*
X57110000Y-22860000D02*
X57110000Y-18730000D01*
D27*
X63060000Y-33600000D02*
X63000000Y-33660000D01*
X67300000Y-33600000D02*
X63060000Y-33600000D01*
X73220000Y-51380000D02*
X74920000Y-51380000D01*
X70200000Y-48600000D02*
X73220000Y-51380000D01*
X66302940Y-31300010D02*
X68710012Y-31300010D01*
X70200000Y-32800000D02*
X70200000Y-48600000D01*
X68710012Y-31300010D02*
X70200000Y-32800000D01*
X66107157Y-31290000D02*
X66300000Y-31290000D01*
X63000000Y-31120000D02*
X65179912Y-31120000D01*
X65339912Y-31280000D02*
X66160000Y-31280000D01*
X65179912Y-31120000D02*
X65339912Y-31280000D01*
X63060000Y-36140000D02*
X63000000Y-36200000D01*
X67300000Y-36140000D02*
X63060000Y-36140000D01*
X63060000Y-38680000D02*
X63000000Y-38740000D01*
X67300000Y-38680000D02*
X63060000Y-38680000D01*
X76620000Y-46300000D02*
X74920000Y-46300000D01*
X77070010Y-45849990D02*
X76620000Y-46300000D01*
X77070010Y-36590010D02*
X77070010Y-45849990D01*
X76620000Y-36140000D02*
X77070010Y-36590010D01*
X74920000Y-36140000D02*
X76620000Y-36140000D01*
X33200000Y-28998780D02*
X38149390Y-24049390D01*
X33200000Y-32700000D02*
X33200000Y-28998780D01*
X35310000Y-38790000D02*
X35310000Y-34810000D01*
X35310000Y-34810000D02*
X33200000Y-32700000D01*
X16380000Y-35140000D02*
X16630000Y-35390000D01*
X16380000Y-33090000D02*
X16380000Y-35140000D01*
X15370000Y-57410000D02*
X11849999Y-53889999D01*
X11849999Y-53889999D02*
X11849999Y-53418001D01*
X51700000Y-54400000D02*
X48690000Y-57410000D01*
X11849999Y-53418001D02*
X11299999Y-52868001D01*
X11299999Y-52868001D02*
X11299999Y-47690001D01*
X12330000Y-33940000D02*
X13180000Y-33090000D01*
X11299999Y-47690001D02*
X12330000Y-46660000D01*
X48690000Y-57410000D02*
X15370000Y-57410000D01*
X13180000Y-33090000D02*
X16380000Y-33090000D01*
X12330000Y-46660000D02*
X12330000Y-33940000D01*
X51928630Y-54400000D02*
X52568630Y-53760000D01*
X51700000Y-54400000D02*
X51928630Y-54400000D01*
X18549390Y-28150610D02*
X18549390Y-28049390D01*
X18549390Y-28049390D02*
X16600000Y-26100000D01*
X19050000Y-22500000D02*
X19250000Y-22300000D01*
X63060000Y-41220000D02*
X63000000Y-41280000D01*
X67300000Y-41220000D02*
X63060000Y-41220000D01*
X63060000Y-43760000D02*
X63000000Y-43820000D01*
X67300000Y-43760000D02*
X63060000Y-43760000D01*
X63060000Y-46300000D02*
X63000000Y-46360000D01*
X67300000Y-46300000D02*
X63060000Y-46300000D01*
X63060000Y-48840000D02*
X63000000Y-48900000D01*
X67300000Y-48840000D02*
X63060000Y-48840000D01*
X66310000Y-29920000D02*
X66310000Y-29950000D01*
X66510000Y-29930000D02*
X66690000Y-30110000D01*
X66800000Y-30100000D02*
X70800000Y-30100000D01*
X67400000Y-25560000D02*
X67400000Y-25900000D01*
X71500000Y-30800000D02*
X70800000Y-30100000D01*
X71500000Y-39500000D02*
X71500000Y-30800000D01*
X73220000Y-41220000D02*
X71500000Y-39500000D01*
X74920000Y-41220000D02*
X73220000Y-41220000D01*
X68199999Y-26359999D02*
X67400000Y-25560000D01*
X68740000Y-26900000D02*
X68199999Y-26359999D01*
X72100000Y-27000000D02*
X68841560Y-27000000D01*
X74461580Y-24638420D02*
X72100000Y-27000000D01*
X74500000Y-24538420D02*
X74500000Y-19890000D01*
X74500000Y-19890000D02*
X71710000Y-17100000D01*
X68345200Y-17100000D02*
X66839600Y-15594400D01*
X71710000Y-17100000D02*
X68345200Y-17100000D01*
X66887857Y-25512143D02*
X65260000Y-27140000D01*
X67400000Y-25560000D02*
X66747857Y-25560000D01*
X65260000Y-27204166D02*
X65260000Y-27700000D01*
X65250010Y-29220010D02*
X65749990Y-29719990D01*
X65250010Y-27813701D02*
X65250010Y-29220010D01*
X65900000Y-29900000D02*
X66165998Y-29900000D01*
X65749990Y-29719990D02*
X65749990Y-29749990D01*
X65749990Y-29749990D02*
X65900000Y-29900000D01*
M02*
