M48
; DRILL file {KiCad (5.1.5)-3} date 12/19/19 17:03:24
; FORMAT={-:-/ absolute / metric / decimal}
; #@! TF.CreationDate,2019-12-19T17:03:24+01:00
; #@! TF.GenerationSoftware,Kicad,Pcbnew,(5.1.5)-3
; #@! TF.FileFunction,Plated,1,2,PTH
FMAT,2
METRIC
T1C0.800
T2C0.890
T3C1.100
T4C2.010
%
G90
G05
T1
X160.2Y-139.4
X162.2Y-139.4
X142.8Y-136.26
X142.8Y-138.8
X149.0Y-100.4
X151.14Y-100.4
X153.2Y-100.4
X151.4Y-105.4
X153.94Y-105.4
X142.8Y-101.4
X145.34Y-101.4
X155.0Y-108.86
X155.0Y-111.4
X142.98Y-111.88
X142.98Y-114.42
X142.98Y-116.96
X142.98Y-119.5
X142.98Y-122.04
X142.98Y-124.58
X142.98Y-127.12
X142.98Y-129.66
X142.98Y-132.2
X150.6Y-111.88
X150.6Y-114.42
X150.6Y-116.96
X150.6Y-119.5
X150.6Y-122.04
X150.6Y-124.58
X150.6Y-127.12
X150.6Y-129.66
X150.6Y-132.2
X154.9Y-116.9
X154.9Y-119.44
X154.9Y-121.98
X154.9Y-124.52
X154.9Y-127.06
X154.9Y-129.6
X154.9Y-132.14
X154.9Y-134.68
X162.52Y-116.9
X162.52Y-119.44
X162.52Y-121.98
X162.52Y-124.52
X162.52Y-127.06
X162.52Y-129.6
X162.52Y-132.14
X162.52Y-134.68
T2
X158.6Y-104.06
X158.6Y-106.6
X158.6Y-109.14
T3
X142.725Y-105.0
X145.425Y-105.0
X147.725Y-105.0
X146.8Y-135.8
X146.8Y-138.5
X146.8Y-140.8
T4
X167.39Y-111.68
X167.49Y-101.52
T0
M30
