G04 #@! TF.GenerationSoftware,KiCad,Pcbnew,(5.1.5)-3*
G04 #@! TF.CreationDate,2019-12-19T16:48:26+01:00*
G04 #@! TF.ProjectId,LED_multiplexer,4c45445f-6d75-46c7-9469-706c65786572,v01*
G04 #@! TF.SameCoordinates,Original*
G04 #@! TF.FileFunction,Copper,L2,Bot*
G04 #@! TF.FilePolarity,Positive*
%FSLAX46Y46*%
G04 Gerber Fmt 4.6, Leading zero omitted, Abs format (unit mm)*
G04 Created by KiCad (PCBNEW (5.1.5)-3) date 2019-12-19 16:48:26*
%MOMM*%
%LPD*%
G04 APERTURE LIST*
%ADD10C,1.500000*%
%ADD11R,1.500000X1.500000*%
%ADD12C,1.600000*%
%ADD13O,1.600000X1.600000*%
%ADD14R,2.400000X1.600000*%
%ADD15O,2.400000X1.600000*%
%ADD16O,1.800000X1.714500*%
%ADD17R,1.800000X1.714500*%
%ADD18R,1.714500X1.800000*%
%ADD19O,1.714500X1.800000*%
%ADD20R,1.350000X1.350000*%
%ADD21O,1.350000X1.350000*%
%ADD22O,7.000000X3.500000*%
%ADD23C,0.200000*%
G04 APERTURE END LIST*
D10*
X151140000Y-100400000D03*
X153200000Y-100400000D03*
D11*
X149000000Y-100400000D03*
D12*
X155000000Y-111400000D03*
D13*
X155000000Y-108860000D03*
X142800000Y-136260000D03*
D12*
X142800000Y-138800000D03*
X145340000Y-101400000D03*
D13*
X142800000Y-101400000D03*
D14*
X154900000Y-116900000D03*
D15*
X162520000Y-134680000D03*
X154900000Y-119440000D03*
X162520000Y-132140000D03*
X154900000Y-121980000D03*
X162520000Y-129600000D03*
X154900000Y-124520000D03*
X162520000Y-127060000D03*
X154900000Y-127060000D03*
X162520000Y-124520000D03*
X154900000Y-129600000D03*
X162520000Y-121980000D03*
X154900000Y-132140000D03*
X162520000Y-119440000D03*
X154900000Y-134680000D03*
X162520000Y-116900000D03*
D14*
X150600000Y-132200000D03*
D15*
X142980000Y-111880000D03*
X150600000Y-129660000D03*
X142980000Y-114420000D03*
X150600000Y-127120000D03*
X142980000Y-116960000D03*
X150600000Y-124580000D03*
X142980000Y-119500000D03*
X150600000Y-122040000D03*
X142980000Y-122040000D03*
X150600000Y-119500000D03*
X142980000Y-124580000D03*
X150600000Y-116960000D03*
X142980000Y-127120000D03*
X150600000Y-114420000D03*
X142980000Y-129660000D03*
X150600000Y-111880000D03*
X142980000Y-132200000D03*
D16*
X146800000Y-140800000D03*
X146800000Y-138500000D03*
D17*
X146800000Y-135800000D03*
D18*
X142725001Y-105000000D03*
D19*
X145425001Y-105000000D03*
X147725001Y-105000000D03*
D20*
X160200000Y-139400000D03*
D21*
X162200000Y-139400000D03*
D12*
X151400000Y-105400000D03*
D13*
X153940000Y-105400000D03*
D22*
X167490000Y-101520000D03*
X167390000Y-111680000D03*
G04 #@! TA.AperFunction,ComponentPad*
D23*
G36*
X159039207Y-105801926D02*
G01*
X159078036Y-105807686D01*
X159116114Y-105817224D01*
X159153073Y-105830448D01*
X159188559Y-105847231D01*
X159222228Y-105867412D01*
X159253757Y-105890796D01*
X159282843Y-105917157D01*
X159309204Y-105946243D01*
X159332588Y-105977772D01*
X159352769Y-106011441D01*
X159369552Y-106046927D01*
X159382776Y-106083886D01*
X159392314Y-106121964D01*
X159398074Y-106160793D01*
X159400000Y-106200000D01*
X159400000Y-107000000D01*
X159398074Y-107039207D01*
X159392314Y-107078036D01*
X159382776Y-107116114D01*
X159369552Y-107153073D01*
X159352769Y-107188559D01*
X159332588Y-107222228D01*
X159309204Y-107253757D01*
X159282843Y-107282843D01*
X159253757Y-107309204D01*
X159222228Y-107332588D01*
X159188559Y-107352769D01*
X159153073Y-107369552D01*
X159116114Y-107382776D01*
X159078036Y-107392314D01*
X159039207Y-107398074D01*
X159000000Y-107400000D01*
X158200000Y-107400000D01*
X158160793Y-107398074D01*
X158121964Y-107392314D01*
X158083886Y-107382776D01*
X158046927Y-107369552D01*
X158011441Y-107352769D01*
X157977772Y-107332588D01*
X157946243Y-107309204D01*
X157917157Y-107282843D01*
X157890796Y-107253757D01*
X157867412Y-107222228D01*
X157847231Y-107188559D01*
X157830448Y-107153073D01*
X157817224Y-107116114D01*
X157807686Y-107078036D01*
X157801926Y-107039207D01*
X157800000Y-107000000D01*
X157800000Y-106200000D01*
X157801926Y-106160793D01*
X157807686Y-106121964D01*
X157817224Y-106083886D01*
X157830448Y-106046927D01*
X157847231Y-106011441D01*
X157867412Y-105977772D01*
X157890796Y-105946243D01*
X157917157Y-105917157D01*
X157946243Y-105890796D01*
X157977772Y-105867412D01*
X158011441Y-105847231D01*
X158046927Y-105830448D01*
X158083886Y-105817224D01*
X158121964Y-105807686D01*
X158160793Y-105801926D01*
X158200000Y-105800000D01*
X159000000Y-105800000D01*
X159039207Y-105801926D01*
G37*
G04 #@! TD.AperFunction*
D12*
X158600000Y-104060000D03*
X158600000Y-109140000D03*
M02*
